<?xml version="1.0" encoding="UTF-8" standalone="no"?>
<svg
   xmlns:dc="http://purl.org/dc/elements/1.1/"
   xmlns:cc="http://creativecommons.org/ns#"
   xmlns:rdf="http://www.w3.org/1999/02/22-rdf-syntax-ns#"
   xmlns:svg="http://www.w3.org/2000/svg"
   xmlns="http://www.w3.org/2000/svg"
   xmlns:sodipodi="http://sodipodi.sourceforge.net/DTD/sodipodi-0.dtd"
   xmlns:inkscape="http://www.inkscape.org/namespaces/inkscape"
   version="1.1"
   x="0px"
   y="0px"
   width="128"
   height="128"
   viewBox="0, 0, 128, 128"
   id="svg2451"
   sodipodi:docname="escher_enabled.svg"
   inkscape:version="0.92.3 (3ce5693, 2018-03-11)"
   inkscape:export-filename="/home/xander/Escher_island/checkio-missions-escher/03.compass,map_and_spyglass/info/logo/escher_disabled.png"
   inkscape:export-xdpi="810.00006"
   inkscape:export-ydpi="810.00006">
  <sodipodi:namedview
     pagecolor="#ffffff"
     bordercolor="#666666"
     borderopacity="1"
     objecttolerance="10"
     gridtolerance="10"
     guidetolerance="10"
     inkscape:pageopacity="0"
     inkscape:pageshadow="2"
     inkscape:window-width="1600"
     inkscape:window-height="876"
     id="namedview138"
     showgrid="false"
     inkscape:zoom="3.9609028"
     inkscape:cx="69.415088"
     inkscape:cy="55.662404"
     inkscape:window-x="0"
     inkscape:window-y="24"
     inkscape:window-maximized="1"
     inkscape:current-layer="g2447" />
  <metadata
     id="metadata2455">
    <rdf:RDF>
      <cc:Work
         rdf:about="">
        <dc:format>image/svg+xml</dc:format>
        <dc:type
           rdf:resource="http://purl.org/dc/dcmitype/StillImage" />
        <dc:title></dc:title>
      </cc:Work>
    </rdf:RDF>
  </metadata>
  <g
     id="Background"
     transform="matrix(1.2705,0,0,1.2705,-28.882197,-27.900779)">
    <rect
       x="0"
       y="0"
       width="128"
       height="128"
       id="rect2434"
       style="fill:#000000;fill-opacity:0" />
  </g>
  <g
     id="g2447">
    <g
       transform="matrix(0.2025,0,0,0.2025,11.313137,17.859557)"
       id="g3681"
       style="fill:#ebeded;fill-opacity:1" />
    <g
       transform="matrix(0.2025,0,0,0.2025,11.313137,17.859557)"
       id="g3683"
       style="fill:#ebeded;fill-opacity:1" />
    <g
       transform="matrix(0.2025,0,0,0.2025,11.313137,17.859557)"
       id="g3685"
       style="fill:#ebeded;fill-opacity:1" />
    <g
       transform="matrix(0.2025,0,0,0.2025,11.313137,17.859557)"
       id="g3687"
       style="fill:#ebeded;fill-opacity:1" />
    <g
       transform="matrix(0.2025,0,0,0.2025,11.313137,17.859557)"
       id="g3689"
       style="fill:#ebeded;fill-opacity:1" />
    <g
       transform="matrix(0.2025,0,0,0.2025,11.313137,17.859557)"
       id="g3691"
       style="fill:#ebeded;fill-opacity:1" />
    <g
       transform="matrix(0.2025,0,0,0.2025,11.313137,17.859557)"
       id="g3693"
       style="fill:#ebeded;fill-opacity:1" />
    <g
       transform="matrix(0.2025,0,0,0.2025,11.313137,17.859557)"
       id="g3695"
       style="fill:#ebeded;fill-opacity:1" />
    <g
       transform="matrix(0.2025,0,0,0.2025,11.313137,17.859557)"
       id="g3697"
       style="fill:#ebeded;fill-opacity:1" />
    <g
       transform="matrix(0.2025,0,0,0.2025,11.313137,17.859557)"
       id="g3699"
       style="fill:#ebeded;fill-opacity:1" />
    <g
       transform="matrix(0.2025,0,0,0.2025,11.313137,17.859557)"
       id="g3701"
       style="fill:#ebeded;fill-opacity:1" />
    <g
       transform="matrix(0.2025,0,0,0.2025,11.313137,17.859557)"
       id="g3703"
       style="fill:#ebeded;fill-opacity:1" />
    <g
       transform="matrix(0.2025,0,0,0.2025,11.313137,17.859557)"
       id="g3705"
       style="fill:#ebeded;fill-opacity:1" />
    <g
       transform="matrix(0.2025,0,0,0.2025,11.313137,17.859557)"
       id="g3707"
       style="fill:#ebeded;fill-opacity:1" />
    <g
       transform="matrix(0.2025,0,0,0.2025,11.313137,17.859557)"
       id="g3709"
       style="fill:#ebeded;fill-opacity:1" />
    <g
       transform="matrix(0.51884044,0,0,0.51884044,-65.847195,-54.488427)"
       id="g599"
       style="fill:#737370;fill-opacity:1;stroke:none">
      <polygon
         style="fill:#737370;fill-opacity:1;stroke:none"
         points="184.642,143.629 340.526,71.579 340.526,274.219 184.642,357.35 "
         id="polygon597"
         transform="matrix(0.1356032,0.2932032,-0.00416466,0.97115047,323.55068,-54.480993)" />
      <rect
         style="fill:#737370;fill-opacity:1;stroke:none;stroke-width:2.33212352;stroke-opacity:1"
         id="rect1581"
         width="207.25262"
         height="207.25262"
         x="133.37123"
         y="139.58749" />
      <polygon
         style="fill:#737370;fill-opacity:1;stroke:none"
         points="340.526,274.219 184.642,357.35 184.642,143.629 340.526,71.579 "
         id="polygon597-3"
         transform="matrix(-0.31823348,-0.13560319,-0.97038174,0.00416466,540.83715,157.00748)" />
    </g>
    <g
       transform="matrix(0.3375,0,0,0.3375,136.96358,-2.8188527)"
       id="g601" />
    <g
       transform="matrix(0.3375,0,0,0.3375,136.96358,-2.8188527)"
       id="g603" />
    <g
       transform="matrix(0.3375,0,0,0.3375,136.96358,-2.8188527)"
       id="g605" />
    <g
       transform="matrix(0.3375,0,0,0.3375,136.96358,-2.8188527)"
       id="g607" />
    <g
       transform="matrix(0.3375,0,0,0.3375,136.96358,-2.8188527)"
       id="g609" />
    <g
       transform="matrix(0.3375,0,0,0.3375,136.96358,-2.8188527)"
       id="g611" />
    <g
       transform="matrix(0.3375,0,0,0.3375,136.96358,-2.8188527)"
       id="g613" />
    <g
       transform="matrix(0.3375,0,0,0.3375,136.96358,-2.8188527)"
       id="g615" />
    <g
       transform="matrix(0.3375,0,0,0.3375,136.96358,-2.8188527)"
       id="g617" />
    <g
       transform="matrix(0.3375,0,0,0.3375,136.96358,-2.8188527)"
       id="g619" />
    <g
       transform="matrix(0.3375,0,0,0.3375,136.96358,-2.8188527)"
       id="g621" />
    <g
       transform="matrix(0.3375,0,0,0.3375,136.96358,-2.8188527)"
       id="g623" />
    <g
       transform="matrix(0.3375,0,0,0.3375,136.96358,-2.8188527)"
       id="g625" />
    <g
       transform="matrix(0.3375,0,0,0.3375,136.96358,-2.8188527)"
       id="g627" />
    <g
       transform="matrix(0.3375,0,0,0.3375,136.96358,-2.8188527)"
       id="g629" />
    <g
       transform="matrix(0.1,0,0,0.1,8.3484168,22.672291)"
       style="fill:#82d1f5;fill-opacity:1"
       id="g1053" />
    <g
       transform="matrix(0.1,0,0,0.1,8.3484168,22.672291)"
       style="fill:#82d1f5;fill-opacity:1"
       id="g1055" />
    <g
       transform="matrix(0.1,0,0,0.1,8.3484168,22.672291)"
       style="fill:#82d1f5;fill-opacity:1"
       id="g1057" />
    <g
       transform="matrix(0.1,0,0,0.1,8.3484168,22.672291)"
       style="fill:#82d1f5;fill-opacity:1"
       id="g1059" />
    <g
       transform="matrix(0.1,0,0,0.1,8.3484168,22.672291)"
       style="fill:#82d1f5;fill-opacity:1"
       id="g1061" />
    <g
       transform="matrix(0.1,0,0,0.1,8.3484168,22.672291)"
       style="fill:#82d1f5;fill-opacity:1"
       id="g1063" />
    <g
       transform="matrix(0.1,0,0,0.1,8.3484168,22.672291)"
       style="fill:#82d1f5;fill-opacity:1"
       id="g1065" />
    <g
       transform="matrix(0.1,0,0,0.1,8.3484168,22.672291)"
       style="fill:#82d1f5;fill-opacity:1"
       id="g1067" />
    <g
       transform="matrix(0.1,0,0,0.1,8.3484168,22.672291)"
       style="fill:#82d1f5;fill-opacity:1"
       id="g1069" />
    <g
       transform="matrix(0.1,0,0,0.1,8.3484168,22.672291)"
       style="fill:#82d1f5;fill-opacity:1"
       id="g1071" />
    <g
       transform="matrix(0.1,0,0,0.1,8.3484168,22.672291)"
       style="fill:#82d1f5;fill-opacity:1"
       id="g1073" />
    <g
       transform="matrix(0.1,0,0,0.1,8.3484168,22.672291)"
       style="fill:#82d1f5;fill-opacity:1"
       id="g1075" />
    <g
       transform="matrix(0.1,0,0,0.1,8.3484168,22.672291)"
       style="fill:#82d1f5;fill-opacity:1"
       id="g1077" />
    <g
       transform="matrix(0.1,0,0,0.1,8.3484168,22.672291)"
       style="fill:#82d1f5;fill-opacity:1"
       id="g1079" />
    <g
       transform="matrix(0.1,0,0,0.1,8.3484168,22.672291)"
       style="fill:#82d1f5;fill-opacity:1"
       id="g1081" />
    <g
       id="g5957"
       transform="matrix(0.21,0,0,0.21,3.0385908,18.413669)"
       style="fill:#ebeded;fill-opacity:1">
      <g
         id="g5955"
         style="fill:#ebeded;fill-opacity:1">
        <path
           inkscape:connector-curvature="0"
           d="m 390.967,121.033 c -2.934,-2.934 -7.693,-2.934 -10.627,0 l -12.044,12.044 c -2.935,2.934 -2.935,7.693 0,10.627 1.467,1.467 3.39,2.201 5.314,2.201 1.924,0 3.846,-0.734 5.314,-2.201 l 12.044,-12.044 c 2.934,-2.934 2.934,-7.693 -0.001,-10.627 z"
           id="path5953"
           style="fill:#ebeded;fill-opacity:1" />
      </g>
    </g>
    <g
       id="g5963"
       transform="matrix(0.21,0,0,0.21,3.0385908,18.413669)"
       style="fill:#ebeded;fill-opacity:1">
      <g
         id="g5961"
         style="fill:#ebeded;fill-opacity:1">
        <path
           inkscape:connector-curvature="0"
           d="m 143.704,368.296 c -2.934,-2.934 -7.693,-2.934 -10.627,0 l -12.044,12.044 c -2.935,2.934 -2.935,7.693 0,10.627 1.467,1.467 3.39,2.201 5.313,2.201 1.923,0 3.846,-0.734 5.314,-2.201 l 12.044,-12.044 c 2.935,-2.934 2.935,-7.693 0,-10.627 z"
           id="path5959"
           style="fill:#ebeded;fill-opacity:1" />
      </g>
    </g>
    <g
       id="g5969"
       transform="matrix(0.21,0,0,0.21,3.0385908,18.413669)"
       style="fill:#ebeded;fill-opacity:1">
      <g
         id="g5967"
         style="fill:#ebeded;fill-opacity:1">
        <path
           inkscape:connector-curvature="0"
           d="m 390.968,380.34 -12.045,-12.044 c -2.934,-2.934 -7.693,-2.934 -10.627,0 -2.935,2.934 -2.935,7.693 0,10.627 l 12.044,12.044 c 1.467,1.467 3.39,2.201 5.314,2.201 1.924,0 3.846,-0.734 5.314,-2.201 2.935,-2.934 2.935,-7.693 0,-10.627 z"
           id="path5965"
           style="fill:#ebeded;fill-opacity:1" />
      </g>
    </g>
    <g
       id="g5975"
       transform="matrix(0.21,0,0,0.21,3.0385908,18.413669)"
       style="fill:#ebeded;fill-opacity:1">
      <g
         id="g5973"
         style="fill:#ebeded;fill-opacity:1">
        <path
           inkscape:connector-curvature="0"
           d="M 143.704,133.077 131.66,121.033 c -2.934,-2.934 -7.693,-2.934 -10.627,0 -2.935,2.934 -2.935,7.693 0,10.627 l 12.044,12.044 c 1.467,1.467 3.39,2.201 5.314,2.201 1.924,0 3.846,-0.734 5.314,-2.201 2.934,-2.934 2.934,-7.693 -0.001,-10.627 z"
           id="path5971"
           style="fill:#82d1f5;fill-opacity:1" />
      </g>
    </g>
    <g
       id="g5981"
       transform="matrix(0.21,0,0,0.21,3.0385908,18.413669)"
       style="fill:#ebeded;fill-opacity:1">
      <g
         id="g5979"
         style="fill:#ebeded;fill-opacity:1">
        <path
           inkscape:connector-curvature="0"
           d="m 126.864,227.335 c -1.376,0 -2.614,0.481 -2.958,1.788 l -10.868,37.281 -5.846,-23.936 c -0.413,-1.72 -2.408,-2.477 -4.334,-2.477 -1.995,0 -3.989,0.757 -4.402,2.477 L 92.61,266.404 81.742,229.123 c -0.344,-1.307 -1.582,-1.788 -2.957,-1.788 -2.545,0 -5.709,1.582 -5.709,3.577 0,0.275 0.069,0.619 0.138,0.825 l 13.619,43.265 c 0.619,2.064 3.233,3.027 5.847,3.027 2.545,0 5.227,-0.963 5.709,-3.027 l 4.471,-18.571 4.402,18.571 c 0.482,2.064 3.164,3.027 5.709,3.027 2.614,0 5.159,-0.963 5.846,-3.027 l 13.619,-43.265 c 0.068,-0.206 0.137,-0.55 0.137,-0.825 0,-1.995 -3.164,-3.577 -5.709,-3.577 z"
           id="path5977"
           style="fill:#82d1f5;fill-opacity:1" />
      </g>
    </g>
    <g
       id="g5987"
       transform="matrix(0.21,0,0,0.21,3.0385908,18.413669)"
       style="fill:#ebeded;fill-opacity:1">
      <g
         id="g5985"
         style="fill:#ebeded;fill-opacity:1">
        <path
           inkscape:connector-curvature="0"
           d="M 435.621,269.774 H 416.155 V 255.95 h 10.455 c 1.926,0 2.82,-1.857 2.82,-3.439 0,-1.857 -1.032,-3.577 -2.82,-3.577 h -10.455 v -13.756 h 19.466 v -0.001 c 1.788,0 2.82,-1.857 2.82,-3.99 0,-1.857 -0.894,-3.852 -2.82,-3.852 h -24.487 c -1.995,0 -3.92,0.963 -3.92,2.82 v 44.641 c 0,1.857 1.926,2.82 3.92,2.82 h 24.487 c 1.926,0 2.82,-1.995 2.82,-3.852 0,-2.133 -1.032,-3.99 -2.82,-3.99 z"
           id="path5983"
           style="fill:#ebeded;fill-opacity:1" />
      </g>
    </g>
    <g
       id="g5993"
       transform="matrix(0.21,0,0,0.21,3.0385908,18.413669)"
       style="fill:#ebeded;fill-opacity:1">
      <g
         id="g5991"
         style="fill:#ebeded;fill-opacity:1">
        <path
           inkscape:connector-curvature="0"
           d="m 268.208,65.255 c -2.27,0 -4.471,0.825 -4.471,2.751 V 95.657 L 250.462,70 c -2.133,-4.058 -3.439,-4.746 -6.672,-4.746 -2.27,0 -4.471,0.894 -4.471,2.82 v 44.641 c 0,1.857 2.201,2.82 4.471,2.82 2.201,0 4.471,-0.963 4.471,-2.82 V 85.064 l 14.788,27.651 c 1.17,2.132 3.027,2.82 5.159,2.82 2.201,0 4.471,-0.963 4.471,-2.82 V 68.006 c 0,-1.926 -2.27,-2.751 -4.471,-2.751 z"
           id="path5989"
           style="fill:#82d1f5;fill-opacity:1" />
      </g>
    </g>
    <g
       id="g5999"
       transform="matrix(0.21,0,0,0.21,3.0385908,18.413669)"
       style="fill:#ebeded;fill-opacity:1">
      <g
         id="g5997"
         style="fill:#ebeded;fill-opacity:1">
        <path
           inkscape:connector-curvature="0"
           d="m 249.878,402.005 c 0,-3.302 2.82,-5.296 7.773,-5.296 5.778,0 7.36,2.614 9.492,2.614 2.477,0 3.577,-3.164 3.577,-4.746 0,-4.54 -9.011,-5.502 -13.069,-5.502 -7.91,0 -16.714,3.508 -16.714,13.757 0,16.301 22.08,13.137 22.08,23.455 -10e-4,4.124 -3.578,5.982 -7.705,5.982 -7.016,0 -8.873,-5.296 -11.693,-5.296 -2.132,0 -3.921,2.889 -3.921,4.815 0,3.989 6.879,8.529 15.889,8.529 9.492,0 16.371,-5.09 16.371,-14.926 0,-17.815 -22.08,-14.857 -22.08,-23.386 z"
           id="path5995"
           style="fill:#ebeded;fill-opacity:1" />
      </g>
    </g>
    <g
       id="g6005"
       transform="matrix(0.189,0,0,0.189,8.4145903,23.789669)"
       style="fill:#ebeded;fill-opacity:1">
      <g
         id="g6003"
         style="fill:#ebeded;fill-opacity:1">
        <path
           inkscape:connector-curvature="0"
           d="M 437.02,74.98 C 388.667,26.629 324.38,0 256,0 187.62,0 123.333,26.629 74.98,74.98 26.629,123.333 0,187.62 0,256 0,324.38 26.629,388.667 74.98,437.02 123.333,485.371 187.62,512 256,512 324.38,512 388.667,485.371 437.02,437.02 485.371,388.667 512,324.38 512,256 512,187.62 485.371,123.333 437.02,74.98 Z M 426.392,426.392 C 380.879,471.906 320.366,496.971 256,496.971 191.634,496.971 131.121,471.906 85.608,426.392 40.094,380.879 15.029,320.366 15.029,256 15.029,191.634 40.094,131.121 85.608,85.608 131.121,40.094 191.634,15.029 256,15.029 c 64.366,0 124.879,25.065 170.392,70.579 45.514,45.513 70.579,106.026 70.579,170.392 0,64.366 -25.065,124.879 -70.579,170.392 z"
           id="path6001"
           style="fill:#ebeded;fill-opacity:1" />
      </g>
    </g>
    <g
       id="g6023"
       transform="matrix(0.21,0,0,0.21,3.0385908,18.413669)"
       style="fill:#ebeded;fill-opacity:1">
      <g
         id="g6021"
         style="fill:#ebeded;fill-opacity:1">
        <path
           inkscape:connector-curvature="0"
           d="M 361.496,351.122 294.038,245.098 c -3.752,-13.07 -14.066,-23.383 -27.135,-27.136 L 160.878,150.504 c -2.971,-1.891 -6.857,-1.464 -9.347,1.026 -2.49,2.49 -2.917,6.376 -1.026,9.347 l 67.458,106.024 c 3.752,13.07 14.066,23.384 27.136,27.136 l 106.025,67.458 c 1.239,0.79 2.638,1.175 4.03,1.175 1.941,0 3.865,-0.75 5.316,-2.201 2.49,-2.49 2.917,-6.376 1.026,-9.347 z M 229.871,226.311 c -0.146,0.129 -0.298,0.252 -0.442,0.383 -0.955,0.867 -1.868,1.78 -2.736,2.736 -0.131,0.145 -0.255,0.297 -0.384,0.443 -0.296,0.336 -0.593,0.672 -0.878,1.018 -0.16,0.194 -0.31,0.396 -0.467,0.593 -0.244,0.308 -0.49,0.614 -0.725,0.93 -0.163,0.219 -0.317,0.445 -0.475,0.668 -0.216,0.303 -0.435,0.604 -0.642,0.913 -0.159,0.237 -0.309,0.481 -0.463,0.722 -0.194,0.303 -0.391,0.605 -0.578,0.914 -0.152,0.252 -0.294,0.51 -0.44,0.765 -0.176,0.307 -0.354,0.612 -0.521,0.924 -0.142,0.265 -0.275,0.535 -0.412,0.803 -0.158,0.311 -0.318,0.62 -0.468,0.935 -0.131,0.276 -0.254,0.557 -0.379,0.836 -0.141,0.316 -0.284,0.631 -0.417,0.952 -0.032,0.077 -0.069,0.152 -0.101,0.229 l -38.013,-59.745 59.747,38.014 c -0.077,0.032 -0.152,0.068 -0.229,0.101 -0.321,0.134 -0.638,0.277 -0.955,0.419 -0.278,0.124 -0.558,0.246 -0.832,0.377 -0.317,0.151 -0.629,0.312 -0.941,0.471 -0.266,0.135 -0.534,0.267 -0.797,0.409 -0.314,0.169 -0.621,0.348 -0.93,0.525 -0.254,0.145 -0.51,0.286 -0.76,0.437 -0.311,0.188 -0.615,0.386 -0.921,0.582 -0.239,0.153 -0.48,0.301 -0.715,0.459 -0.313,0.21 -0.616,0.431 -0.923,0.649 -0.219,0.156 -0.442,0.308 -0.658,0.468 -0.32,0.238 -0.63,0.488 -0.943,0.735 -0.193,0.153 -0.391,0.3 -0.581,0.456 -0.347,0.284 -0.684,0.582 -1.021,0.879 z m 24.719,54.194 c -0.128,-0.007 -0.255,-0.02 -0.383,-0.029 -0.346,-0.025 -0.692,-0.056 -1.036,-0.096 -0.143,-0.017 -0.284,-0.035 -0.426,-0.054 -0.334,-0.044 -0.666,-0.096 -0.998,-0.154 -0.138,-0.024 -0.277,-0.048 -0.415,-0.074 -0.351,-0.068 -0.701,-0.146 -1.049,-0.228 -8.947,-2.144 -16.003,-9.197 -18.149,-18.143 -0.084,-0.352 -0.162,-0.704 -0.231,-1.059 -0.026,-0.136 -0.049,-0.273 -0.073,-0.41 -0.058,-0.333 -0.11,-0.667 -0.155,-1.002 -0.019,-0.141 -0.038,-0.282 -0.054,-0.424 -0.04,-0.345 -0.07,-0.691 -0.096,-1.037 -0.009,-0.128 -0.022,-0.254 -0.029,-0.382 -0.027,-0.47 -0.043,-0.94 -0.043,-1.41 0,-13.536 11.012,-24.548 24.548,-24.548 0.47,0 0.941,0.016 1.41,0.043 0.13,0.007 0.259,0.02 0.388,0.03 0.343,0.025 0.686,0.055 1.028,0.095 0.146,0.017 0.291,0.036 0.437,0.056 0.329,0.044 0.656,0.095 0.983,0.152 0.143,0.025 0.287,0.049 0.429,0.077 0.343,0.066 0.684,0.142 1.024,0.223 8.959,2.139 16.024,9.199 18.17,18.155 0.083,0.348 0.161,0.698 0.229,1.049 0.027,0.138 0.05,0.276 0.074,0.415 0.058,0.332 0.11,0.664 0.154,0.998 0.019,0.142 0.038,0.284 0.054,0.426 0.04,0.345 0.07,0.69 0.096,1.036 0.009,0.128 0.022,0.255 0.029,0.383 0.027,0.47 0.043,0.94 0.043,1.41 0,13.536 -11.012,24.548 -24.548,24.548 -0.472,-0.003 -0.942,-0.019 -1.411,-0.046 z m 16.334,12.152 c 0.077,-0.032 0.152,-0.068 0.229,-0.101 0.321,-0.134 0.638,-0.277 0.955,-0.419 0.278,-0.124 0.558,-0.246 0.832,-0.377 0.317,-0.151 0.629,-0.312 0.941,-0.471 0.266,-0.135 0.534,-0.268 0.797,-0.409 0.315,-0.169 0.624,-0.349 0.934,-0.527 0.252,-0.144 0.507,-0.285 0.755,-0.435 0.314,-0.189 0.62,-0.389 0.928,-0.586 0.236,-0.151 0.475,-0.298 0.708,-0.454 0.315,-0.212 0.622,-0.434 0.931,-0.655 0.216,-0.155 0.437,-0.304 0.65,-0.463 0.326,-0.242 0.642,-0.496 0.96,-0.749 0.187,-0.148 0.379,-0.291 0.563,-0.443 0.362,-0.298 0.713,-0.607 1.063,-0.917 0.132,-0.116 0.269,-0.227 0.399,-0.345 0.957,-0.868 1.871,-1.782 2.739,-2.739 0.118,-0.13 0.229,-0.267 0.345,-0.399 0.31,-0.351 0.62,-0.702 0.917,-1.063 0.152,-0.184 0.294,-0.376 0.443,-0.563 0.252,-0.318 0.506,-0.634 0.748,-0.96 0.159,-0.213 0.308,-0.433 0.463,-0.65 0.22,-0.309 0.443,-0.616 0.655,-0.931 0.156,-0.233 0.303,-0.472 0.454,-0.708 0.197,-0.308 0.397,-0.614 0.586,-0.928 0.15,-0.249 0.29,-0.503 0.435,-0.755 0.178,-0.31 0.357,-0.618 0.527,-0.934 0.141,-0.263 0.273,-0.531 0.409,-0.797 0.159,-0.313 0.32,-0.624 0.471,-0.941 0.131,-0.275 0.253,-0.554 0.377,-0.832 0.142,-0.317 0.285,-0.633 0.418,-0.955 0.032,-0.077 0.069,-0.152 0.101,-0.229 l 38.014,59.746 z"
           id="path6019"
           style="fill:#82d1f5;fill-opacity:1" />
      </g>
    </g>
    <g
       id="g6025"
       transform="matrix(0.2,0,0,0.2,5.8510585,21.226137)"
       style="fill:#82d1f5;fill-opacity:1" />
    <g
       id="g6027"
       transform="matrix(0.2,0,0,0.2,5.8510585,21.226137)"
       style="fill:#82d1f5;fill-opacity:1" />
    <g
       id="g6029"
       transform="matrix(0.2,0,0,0.2,5.8510585,21.226137)"
       style="fill:#82d1f5;fill-opacity:1" />
    <g
       id="g6031"
       transform="matrix(0.2,0,0,0.2,5.8510585,21.226137)"
       style="fill:#82d1f5;fill-opacity:1" />
    <g
       id="g6033"
       transform="matrix(0.2,0,0,0.2,5.8510585,21.226137)"
       style="fill:#82d1f5;fill-opacity:1" />
    <g
       id="g6035"
       transform="matrix(0.2,0,0,0.2,5.8510585,21.226137)"
       style="fill:#82d1f5;fill-opacity:1" />
    <g
       id="g6037"
       transform="matrix(0.2,0,0,0.2,5.8510585,21.226137)"
       style="fill:#82d1f5;fill-opacity:1" />
    <g
       id="g6039"
       transform="matrix(0.2,0,0,0.2,5.8510585,21.226137)"
       style="fill:#82d1f5;fill-opacity:1" />
    <g
       id="g6041"
       transform="matrix(0.2,0,0,0.2,5.8510585,21.226137)"
       style="fill:#82d1f5;fill-opacity:1" />
    <g
       id="g6043"
       transform="matrix(0.2,0,0,0.2,5.8510585,21.226137)"
       style="fill:#82d1f5;fill-opacity:1" />
    <g
       id="g6045"
       transform="matrix(0.2,0,0,0.2,5.8510585,21.226137)"
       style="fill:#82d1f5;fill-opacity:1" />
    <g
       id="g6047"
       transform="matrix(0.2,0,0,0.2,5.8510585,21.226137)"
       style="fill:#82d1f5;fill-opacity:1" />
    <g
       id="g6049"
       transform="matrix(0.2,0,0,0.2,5.8510585,21.226137)"
       style="fill:#82d1f5;fill-opacity:1" />
    <g
       id="g6051"
       transform="matrix(0.2,0,0,0.2,5.8510585,21.226137)"
       style="fill:#82d1f5;fill-opacity:1" />
    <g
       id="g6053"
       transform="matrix(0.2,0,0,0.2,5.8510585,21.226137)"
       style="fill:#82d1f5;fill-opacity:1" />
  </g>
  <defs
     id="defs2449">
    <inkscape:perspective
       sodipodi:type="inkscape:persp3d"
       inkscape:vp_x="-4.5741282 : 162.66539 : 1"
       inkscape:vp_y="0 : -24814.101 : 0"
       inkscape:vp_z="112.22065 : 162.66539 : 1"
       inkscape:persp3d-origin="53.823261 : 692.03287 : 1"
       id="perspective1565" />
  </defs>
</svg>
